<?xml version="1.0" standalone="no"?>
<!DOCTYPE svg PUBLIC "-//W3C//DTD SVG 20010904//EN"
 "http://www.w3.org/TR/2001/REC-SVG-20010904/DTD/svg10.dtd">
<svg version="1.0" xmlns="http://www.w3.org/2000/svg"
 width="512.000000pt" height="512.000000pt" viewBox="0 0 512.000000 512.000000"
 preserveAspectRatio="xMidYMid meet">

<g transform="translate(0.000000,512.000000) scale(0.100000,-0.100000)"
fill="#000000" stroke="none">
<path d="M1344 4866 c-54 -17 -127 -68 -159 -111 -49 -63 -65 -124 -65 -245
l0 -110 -108 0 c-124 0 -198 -16 -284 -62 -69 -36 -165 -135 -197 -202 -53
-108 -51 -29 -51 -1782 l0 -1631 -79 -5 c-62 -4 -88 -10 -125 -32 -170 -100
-145 -365 41 -432 51 -18 4398 -21 4468 -3 58 15 128 76 150 131 22 54 22 142
1 193 -25 60 -83 113 -140 130 -30 9 -91 15 -154 15 -104 0 -104 0 -97 23 4
12 10 271 12 574 l5 552 49 -24 c56 -29 139 -33 193 -11 92 38 150 126 151
227 0 126 13 114 -645 594 -102 74 -248 181 -325 238 l-140 103 -5 509 c-5
495 -6 512 -27 568 -47 125 -137 226 -248 278 -77 37 -144 49 -265 49 l-98 0
-4 118 c-3 99 -8 125 -30 172 -33 71 -87 126 -157 159 l-56 26 -785 2 c-620 1
-794 -1 -826 -11z m2146 -657 c70 -33 126 -89 159 -159 l26 -55 3 -451 3 -452
-63 15 c-132 31 -261 1 -399 -93 l-79 -53 -507 -3 c-505 -3 -508 -3 -550 -26
-63 -33 -106 -74 -133 -129 l-25 -48 -3 -459 c-3 -511 -2 -517 63 -593 30 -35
106 -82 158 -97 16 -5 17 -33 17 -393 1 -348 3 -393 19 -441 l18 -52 -84 0
c-82 0 -84 1 -95 28 -9 19 -13 135 -16 383 l-3 356 -59 41 c-106 75 -180 222
-180 358 0 35 -4 64 -9 64 -19 0 -98 -88 -121 -135 l-25 -50 0 -485 c0 -442 2
-488 18 -519 9 -19 17 -36 17 -38 0 -1 -225 -3 -500 -3 l-500 0 0 79 0 80 278
3 c275 3 277 3 332 29 70 33 126 89 159 159 l26 55 0 315 0 315 -26 55 c-33
70 -89 126 -159 159 -55 26 -57 26 -332 29 l-278 3 0 989 c0 953 1 992 19
1040 25 67 61 112 118 151 88 61 16 58 1393 56 l1265 -2 55 -26z m-611 -1442
c-24 -19 -196 -145 -382 -281 -185 -136 -350 -263 -365 -282 -15 -18 -32 -48
-39 -66 -10 -27 -12 26 -10 279 l2 311 25 27 c14 15 34 31 45 35 11 5 188 9
394 9 l374 1 -44 -33z m1090 -457 l430 -315 1 -588 c0 -632 0 -635 -51 -671
-19 -13 -50 -16 -166 -16 -79 0 -143 2 -143 5 0 2 8 24 18 47 15 39 17 85 17
448 l0 405 -33 67 c-39 79 -93 129 -170 158 -52 20 -73 21 -371 18 l-316 -3
-50 -27 c-60 -32 -114 -87 -146 -148 -24 -45 -24 -47 -27 -451 -3 -412 -2
-419 33 -501 7 -17 -4 -18 -140 -18 l-147 0 -34 34 -34 34 0 603 0 604 438
321 c244 180 442 319 449 315 6 -3 205 -148 442 -321z m-1818 -427 c71 -65
189 -81 275 -38 27 14 50 25 52 25 1 0 2 -25 2 -56 l0 -55 -165 3 -165 3 -32
33 c-32 31 -33 36 -36 120 l-3 87 24 -50 c13 -27 35 -60 48 -72z m-1271 -338
l0 -296 25 -24 c26 -27 51 -31 88 -14 44 20 47 43 47 346 l0 285 68 -4 c81 -4
125 -31 153 -92 17 -37 19 -69 19 -306 0 -297 -6 -324 -71 -371 -34 -24 -37
-24 -301 -27 l-268 -3 0 401 0 400 120 0 120 0 0 -295z m3879 -995 c10 -5 24
-23 31 -40 15 -35 0 -84 -31 -100 -11 -6 -823 -10 -2204 -10 l-2186 0 -24 25
c-16 15 -25 36 -25 55 0 19 9 40 25 55 l24 25 2186 0 c1381 0 2193 -4 2204
-10z"/>
<path d="M1013 4062 c-93 -33 -158 -97 -194 -192 -16 -43 -19 -77 -19 -230 0
-216 13 -264 92 -343 82 -82 116 -92 303 -92 152 0 163 1 216 26 69 33 124 88
158 159 25 53 26 61 26 250 0 189 -1 197 -26 251 -32 68 -83 120 -152 156 -49
25 -62 27 -202 30 -126 3 -158 0 -202 -15z"/>
<path d="M1973 4062 c-93 -33 -158 -97 -194 -192 -16 -43 -19 -77 -19 -230 0
-216 13 -264 92 -343 82 -82 116 -92 303 -92 152 0 163 1 216 26 69 33 124 88
158 159 25 53 26 61 26 250 0 189 -1 197 -26 251 -32 68 -83 120 -152 156 -49
25 -62 27 -202 30 -126 3 -158 0 -202 -15z"/>
<path d="M2933 4062 c-93 -33 -158 -97 -194 -192 -16 -43 -19 -77 -19 -230 0
-216 13 -264 92 -343 82 -82 116 -92 303 -92 152 0 163 1 216 26 69 33 124 88
158 159 25 53 26 61 26 250 0 189 -1 197 -26 251 -32 68 -83 120 -152 156 -49
25 -62 27 -202 30 -126 3 -158 0 -202 -15z"/>
<path d="M1013 3022 c-93 -33 -158 -97 -194 -192 -16 -43 -19 -77 -19 -230 0
-216 13 -264 92 -343 82 -82 116 -92 303 -92 152 0 163 1 216 26 69 33 124 88
158 159 25 53 26 61 26 250 0 189 -1 197 -26 251 -32 68 -83 120 -152 156 -49
25 -62 27 -202 30 -126 3 -158 0 -202 -15z"/>
</g>
</svg>
