<?xml version="1.0" standalone="no"?>
<!DOCTYPE svg PUBLIC "-//W3C//DTD SVG 20010904//EN"
 "http://www.w3.org/TR/2001/REC-SVG-20010904/DTD/svg10.dtd">
<svg version="1.0" xmlns="http://www.w3.org/2000/svg"
 width="512.000000pt" height="512.000000pt" viewBox="0 0 512.000000 512.000000"
 preserveAspectRatio="xMidYMid meet">

<g transform="translate(0.000000,512.000000) scale(0.100000,-0.100000)"
fill="#000000" stroke="none">
<path d="M2585 4975 c-21 -20 -25 -34 -25 -85 l0 -60 80 0 80 0 0 60 c0 51 -4
65 -25 85 -15 16 -36 25 -55 25 -19 0 -40 -9 -55 -25z"/>
<path d="M2196 4649 c-24 -19 -26 -27 -26 -90 l0 -69 470 0 470 0 0 68 c0 37
-4 72 -8 78 -21 32 -53 34 -465 34 -404 0 -415 -1 -441 -21z"/>
<path d="M1886 4309 l-26 -20 0 -724 0 -723 33 -20 c34 -22 156 -141 184 -181
9 -13 31 -49 50 -80 18 -30 33 -48 33 -39 0 42 24 48 181 48 85 0 159 -5 170
-10 18 -10 19 -23 19 -173 0 -114 -4 -167 -12 -175 -8 -8 -56 -12 -150 -12
-148 0 -169 -9 -105 -43 109 -59 114 -235 9 -298 -20 -13 -38 -23 -39 -24 -2
-1 -7 -26 -13 -56 -6 -30 -13 -63 -17 -74 -4 -14 1 -11 20 10 14 17 49 44 79
60 l53 30 285 0 c275 0 287 -1 326 -22 66 -35 105 -74 130 -128 l24 -50 0
-567 0 -568 150 0 150 0 0 1909 0 1910 -26 20 c-26 21 -33 21 -754 21 -721 0
-728 0 -754 -21z m1216 -366 c16 -14 18 -33 18 -156 0 -117 -3 -144 -17 -159
-15 -17 -43 -18 -464 -18 l-448 0 -15 22 c-13 18 -16 51 -16 153 0 102 3 135
16 153 l15 22 446 0 c401 0 448 -2 465 -17z m-591 -793 c18 -10 19 -23 19
-173 0 -114 -4 -167 -12 -175 -17 -17 -329 -17 -346 0 -8 8 -12 61 -12 175 0
144 2 163 18 172 23 14 308 14 333 1z m597 -2 c17 -17 17 -329 0 -346 -8 -8
-61 -12 -175 -12 -150 0 -163 1 -173 19 -5 11 -10 85 -10 170 0 123 3 152 16
165 13 13 43 16 173 16 109 0 161 -4 169 -12z m-7 -588 c18 -10 19 -23 19
-173 0 -114 -4 -167 -12 -175 -8 -8 -61 -12 -175 -12 -150 0 -163 1 -173 19
-5 11 -10 85 -10 170 0 123 3 152 16 165 13 13 42 16 165 16 85 0 159 -5 170
-10z"/>
<path d="M3602 3338 c-21 -59 -22 -81 -22 -330 0 -148 3 -268 8 -268 4 0 29 7
56 15 66 20 217 19 287 -1 194 -57 349 -217 394 -406 24 -103 16 -246 -20
-330 -7 -17 9 -18 256 -17 263 0 264 0 334 28 l70 27 3 160 2 159 -99 38 -99
38 -22 72 c-12 39 -39 106 -61 149 l-39 77 42 96 42 96 -109 109 c-61 61 -115
110 -121 110 -7 0 -51 -18 -98 -40 l-86 -39 -81 40 c-44 22 -111 50 -150 62
l-70 22 -37 97 -37 98 -161 0 -160 0 -22 -62z"/>
<path d="M1357 2919 c-66 -15 -77 -26 -77 -69 0 -53 28 -250 40 -277 9 -21 16
-23 99 -23 62 0 92 4 100 13 18 22 53 308 40 324 -14 16 -103 43 -138 42 -14
-1 -43 -5 -64 -10z"/>
<path d="M1075 2713 c-164 -106 -267 -270 -300 -480 l-7 -43 651 0 651 0 0 28
c0 52 -39 182 -76 252 -45 86 -126 176 -205 229 -34 23 -65 41 -69 41 -4 0
-10 -28 -14 -62 -12 -112 -27 -166 -57 -208 -46 -63 -92 -80 -225 -80 -98 0
-116 3 -160 25 -28 14 -59 40 -73 61 -25 35 -50 132 -51 189 0 37 -10 75 -19
74 -3 0 -24 -12 -46 -26z"/>
<path d="M662 2018 c-8 -8 -9 -15 -1 -25 9 -11 150 -13 754 -13 409 0 750 3
759 6 9 3 16 12 16 19 0 7 -7 16 -16 19 -9 3 -350 6 -758 6 -555 0 -745 -3
-754 -12z"/>
<path d="M3580 1710 l0 -130 508 0 c382 0 511 -3 520 -12 8 -8 12 -53 12 -135
0 -111 -2 -123 -19 -133 -13 -6 -194 -10 -521 -10 l-501 0 3 -137 3 -138 515
-5 515 -5 3 -124 c2 -82 -1 -128 -9 -137 -9 -12 -98 -14 -520 -14 l-509 0 0
-130 0 -130 650 0 c637 0 650 0 670 20 20 20 20 33 20 665 0 632 0 645 -20
665 -20 20 -33 20 -670 20 l-650 0 0 -130z"/>
<path d="M785 1788 c27 -127 82 -225 180 -324 89 -90 196 -152 302 -175 32 -7
59 -13 61 -15 2 -1 -46 -159 -107 -350 -98 -309 -109 -350 -97 -368 32 -50
281 -321 296 -324 19 -3 310 319 310 343 0 12 -194 632 -215 685 -4 12 8 18
54 27 76 14 190 69 262 126 104 83 206 249 225 365 l7 42 -643 0 -642 0 7 -32z"/>
<path d="M2373 1631 c-17 -11 -37 -29 -42 -40 -7 -12 -11 -105 -11 -245 l0
-225 101 -98 c155 -150 259 -300 331 -476 l32 -77 88 0 88 0 0 555 0 555 -29
32 -29 33 -249 3 c-232 2 -250 1 -280 -17z"/>
<path d="M2117 1504 c-20 -35 -62 -90 -92 -122 l-54 -59 92 -46 c50 -25 93
-44 95 -43 1 2 1 78 0 169 l-3 165 -38 -64z"/>
<path d="M1060 1216 c-211 -64 -369 -157 -523 -305 -140 -135 -226 -259 -301
-433 -45 -105 -88 -271 -80 -304 14 -55 3 -54 592 -54 l543 0 -150 170 c-83
93 -158 184 -167 202 -33 63 -24 114 79 434 53 166 97 305 97 308 0 9 -7 7
-90 -18z"/>
<path d="M1705 1198 c7 -24 51 -165 99 -314 49 -154 86 -287 86 -310 -1 -64
-31 -110 -185 -284 l-147 -165 543 -3 543 -2 24 22 c22 21 23 28 18 78 -9 70
-65 238 -112 332 -126 252 -330 457 -583 583 -64 32 -266 105 -291 105 -4 0
-2 -19 5 -42z"/>
</g>
</svg>
