<?xml version="1.0" standalone="no"?>
<!DOCTYPE svg PUBLIC "-//W3C//DTD SVG 20010904//EN"
 "http://www.w3.org/TR/2001/REC-SVG-20010904/DTD/svg10.dtd">
<svg version="1.0" xmlns="http://www.w3.org/2000/svg"
 width="512.000000pt" height="512.000000pt" viewBox="0 0 512.000000 512.000000"
 preserveAspectRatio="xMidYMid meet">

<g transform="translate(0.000000,512.000000) scale(0.100000,-0.100000)"
fill="#000000" stroke="none">
<path d="M2410 5114 c-102 -12 -228 -37 -306 -59 -434 -126 -795 -423 -1003
-825 -410 -792 -133 -1739 773 -2642 196 -196 472 -433 632 -543 l54 -37 54
37 c87 60 304 235 421 341 663 598 1058 1226 1151 1832 17 113 19 374 4 482
-48 344 -198 658 -431 904 -142 150 -278 251 -465 344 -220 111 -425 161 -684
166 -91 3 -181 2 -200 0z m225 -523 c22 -11 96 -65 165 -120 122 -98 125 -100
128 -74 5 55 13 73 44 109 49 55 79 64 227 64 140 0 171 -7 214 -48 56 -53 57
-60 57 -336 l0 -255 113 -94 c138 -116 143 -121 158 -179 19 -69 2 -111 -91
-226 -76 -95 -94 -110 -152 -132 l-28 -10 0 -442 0 -443 -24 -50 c-29 -64
-101 -128 -163 -146 -70 -21 -1376 -21 -1446 0 -62 18 -134 82 -163 146 l-24
50 0 443 0 442 -27 10 c-53 19 -74 36 -144 120 -89 107 -114 157 -105 219 3
25 16 59 27 76 12 16 103 96 203 176 99 81 330 267 511 414 182 147 348 276
370 286 51 24 99 24 150 0z"/>
<path d="M2079 4039 c-261 -210 -485 -392 -498 -404 l-24 -23 53 -64 c29 -35
56 -64 60 -66 4 -2 199 148 431 332 375 297 428 336 459 336 31 0 84 -38 458
-336 233 -184 427 -334 432 -332 12 5 110 125 109 134 0 11 -976 798 -994 802
-7 2 -225 -169 -486 -379z"/>
<path d="M3110 4306 l0 -84 78 -64 c42 -36 83 -68 90 -72 9 -6 12 27 12 148
l0 156 -90 0 -90 0 0 -84z"/>
<path d="M2193 3653 l-363 -287 0 -459 c0 -329 3 -464 12 -480 22 -43 36 -46
195 -47 l151 0 4 258 3 257 28 57 c30 61 64 95 131 131 37 20 55 22 206 22
151 0 169 -2 206 -22 67 -36 101 -70 131 -131 l28 -57 3 -257 4 -258 153 0
153 0 26 31 26 31 0 462 0 462 -357 283 c-196 156 -361 285 -367 287 -6 2
-174 -125 -373 -283z"/>
<path d="M2433 2915 c-17 -7 -36 -22 -42 -34 -7 -12 -11 -107 -11 -260 l0
-241 180 0 180 0 0 241 c0 153 -4 248 -11 261 -6 11 -26 26 -44 34 -45 18
-209 18 -252 -1z"/>
<path d="M550 1053 l-543 -498 1277 -3 c702 -1 1851 -1 2553 0 l1277 3 -475
440 c-261 242 -502 466 -536 497 l-62 58 -287 0 -287 0 -156 -153 c-176 -171
-337 -310 -532 -456 -149 -112 -193 -131 -262 -112 -84 24 -452 319 -707 567
l-157 154 -280 0 -280 0 -543 -497z"/>
<path d="M0 214 l0 -156 29 -29 29 -29 2502 0 2502 0 29 29 29 29 0 156 0 156
-2560 0 -2560 0 0 -156z"/>
</g>
</svg>
