<?xml version="1.0" standalone="no"?>
<!DOCTYPE svg PUBLIC "-//W3C//DTD SVG 20010904//EN"
 "http://www.w3.org/TR/2001/REC-SVG-20010904/DTD/svg10.dtd">
<svg version="1.0" xmlns="http://www.w3.org/2000/svg"
 width="512.000000pt" height="512.000000pt" viewBox="0 0 512.000000 512.000000"
 preserveAspectRatio="xMidYMid meet">

<g transform="translate(0.000000,512.000000) scale(0.100000,-0.100000)"
fill="#000000" stroke="none">
<path d="M2878 4767 l-567 -242 -1 -2022 0 -2023 175 0 175 0 0 426 0 426 -54
-6 c-47 -6 -58 -4 -75 13 -12 12 -21 32 -21 44 0 51 16 54 352 87 173 16 323
30 332 30 29 0 58 -39 51 -68 -8 -35 -31 -52 -69 -52 -17 0 -41 -3 -53 -6
l-23 -6 0 -444 0 -444 745 0 745 0 -2 2022 -3 2022 -565 243 c-311 133 -567
242 -570 242 -3 0 -260 -109 -572 -242z m900 -239 c9 -8 12 -358 12 -1686 0
-1545 -1 -1677 -17 -1694 -16 -18 -49 -23 -69 -10 -34 22 -34 33 -34 1707 l0
1656 25 25 c26 25 52 26 83 2z m-560 -239 l-3 -212 -115 -43 c-63 -24 -118
-44 -123 -44 -4 0 -6 93 -5 206 l3 207 110 47 c61 27 116 48 123 49 10 1 12
-44 10 -210z m844 114 c17 -15 18 -79 18 -1625 0 -1595 0 -1608 -20 -1628 -24
-24 -48 -25 -78 -4 l-22 15 0 1611 c0 1485 1 1613 17 1630 20 22 61 23 85 1z
m-1304 -300 l-3 -198 -100 -37 c-55 -20 -103 -37 -107 -38 -5 0 -8 87 -8 193
l0 192 93 42 c50 23 100 42 110 42 16 1 17 -13 15 -196z m1586 181 c14 -14 16
-170 16 -1566 0 -1430 -1 -1553 -17 -1570 -23 -26 -58 -22 -82 8 l-21 27 2
1544 c3 1516 3 1545 22 1559 26 18 61 18 80 -2z m-1126 -701 l-3 -226 -100
-28 c-55 -15 -110 -30 -123 -34 l-22 -5 2 221 3 222 110 38 c61 21 116 38 123
38 10 1 12 -47 10 -226z m-458 -143 l0 -209 -72 -21 c-40 -12 -86 -25 -102
-31 -16 -5 -33 -9 -37 -9 -5 0 -9 93 -9 208 l0 207 103 36 c56 19 105 33 110
31 4 -2 7 -97 7 -212z m460 -575 l0 -225 -22 -5 c-113 -26 -220 -41 -224 -31
-2 6 -3 106 -2 221 l3 209 105 27 c58 15 113 28 123 28 16 1 17 -16 17 -224z
m-460 -99 l0 -214 -92 -17 c-51 -9 -101 -19 -110 -22 -17 -4 -18 10 -18 205
l0 210 98 25 c53 14 103 26 110 26 9 1 12 -48 12 -213z m460 -620 l0 -224 -32
-6 c-18 -3 -75 -8 -125 -12 l-93 -7 0 220 0 221 93 15 c50 8 107 15 125 16
l32 1 0 -224z m-462 -58 l-3 -213 -105 -10 -105 -10 -3 204 c-1 112 -1 206 2
208 5 5 153 30 189 32 l27 1 -2 -212z"/>
<path d="M1118 3577 l-588 -252 0 -1422 0 -1423 185 0 185 0 0 331 0 331 -46
-7 c-58 -8 -94 12 -94 55 0 15 6 35 14 43 17 17 29 18 394 53 271 26 283 26
302 9 43 -39 12 -105 -50 -105 -14 0 -35 -3 -47 -6 l-23 -6 0 -349 0 -349 420
0 420 0 -2 1576 -3 1577 -230 98 c-126 55 -234 99 -240 98 -5 0 -274 -114
-597 -252z m220 -413 l-3 -177 -95 -33 c-52 -18 -96 -33 -97 -34 -2 0 -3 76
-3 169 l0 169 93 40 c50 22 95 41 100 41 4 1 6 -78 5 -175z m-378 -147 l0
-162 -77 -28 c-43 -15 -84 -27 -90 -27 -10 0 -13 37 -13 154 l0 153 83 36 c45
19 85 35 90 36 4 1 7 -72 7 -162z m378 -434 l-3 -187 -90 -23 c-49 -12 -93
-23 -98 -23 -4 0 -6 81 -5 181 l3 181 85 28 c47 15 91 28 98 29 10 1 12 -39
10 -186z m-378 -106 l0 -173 -85 -21 c-46 -11 -87 -18 -90 -15 -3 3 -5 78 -5
167 l0 161 78 26 c42 14 83 27 90 27 9 1 12 -40 12 -172z m378 -484 l-3 -188
-80 -12 c-44 -6 -88 -12 -97 -12 -17 -1 -18 14 -18 178 l0 180 78 16 c42 9 82
18 87 20 35 12 35 8 33 -182z m-378 -67 l0 -173 -52 -7 c-29 -4 -70 -10 -90
-13 l-38 -6 0 167 c0 188 -8 170 89 192 100 22 91 37 91 -160z"/>
<path d="M120 235 l0 -125 2440 0 2440 0 0 125 0 125 -2440 0 -2440 0 0 -125z"/>
</g>
</svg>
