<?xml version="1.0" standalone="no"?>
<!DOCTYPE svg PUBLIC "-//W3C//DTD SVG 20010904//EN"
 "http://www.w3.org/TR/2001/REC-SVG-20010904/DTD/svg10.dtd">
<svg version="1.0" xmlns="http://www.w3.org/2000/svg"
 width="512.000000pt" height="512.000000pt" viewBox="0 0 512.000000 512.000000"
 preserveAspectRatio="xMidYMid meet">

<g transform="translate(0.000000,512.000000) scale(0.100000,-0.100000)"
fill="#000000" stroke="none">
<path d="M2785 5107 c-22 -8 -50 -19 -63 -26 -34 -18 -1691 -1534 -1734 -1587
-122 -148 -67 -376 111 -458 34 -15 67 -21 122 -21 65 0 83 4 132 30 40 21
263 221 784 703 400 369 730 672 733 672 3 0 337 -306 741 -680 481 -445 750
-688 779 -702 63 -30 186 -31 251 -2 64 30 116 79 147 138 21 41 26 65 26 126
1 80 -12 124 -52 178 -13 18 -402 381 -864 805 -566 520 -857 781 -893 801
-63 33 -157 43 -220 23z"/>
<path d="M3699 5098 c-45 -25 -81 -87 -77 -128 2 -24 76 -97 448 -439 l445
-410 3 440 c2 434 2 442 -19 479 -12 21 -38 47 -59 59 -36 20 -50 21 -371 21
-321 0 -335 -1 -370 -22z"/>
<path d="M2192 3393 c-493 -455 -671 -624 -671 -640 -1 -13 1 -23 3 -23 3 0
35 6 73 14 167 35 372 28 559 -19 77 -20 122 -36 252 -92 9 -4 12 25 12 127 0
153 14 191 80 229 36 20 50 21 369 21 313 0 334 -1 371 -20 26 -13 47 -34 60
-60 18 -36 20 -58 20 -278 l0 -239 133 -5 c142 -6 229 -28 321 -82 65 -38 148
-117 192 -183 21 -32 41 -62 45 -66 4 -5 52 48 108 117 l101 125 0 224 0 224
-671 622 c-369 341 -675 621 -679 621 -4 0 -309 -278 -678 -617z"/>
<path d="M79 2688 c-20 -11 -46 -38 -58 -58 l-21 -38 0 -1237 0 -1237 21 -38
c40 -72 70 -80 286 -80 105 0 214 5 244 10 180 34 325 179 359 359 14 73 14
1899 0 1972 -34 180 -179 325 -359 359 -30 5 -140 10 -245 10 -176 0 -194 -2
-227 -22z"/>
<path d="M2722 2563 l3 -148 148 -3 147 -3 0 151 0 150 -150 0 -151 0 3 -147z"/>
<path d="M1735 2464 c-209 -30 -319 -66 -456 -150 l-59 -35 0 -990 0 -989
1151 0 c1161 0 1222 2 1349 37 141 39 342 167 431 275 58 70 929 1345 944
1383 93 220 -112 463 -342 406 -99 -25 -113 -39 -553 -586 -239 -297 -434
-530 -455 -544 -92 -62 -75 -60 -823 -61 -665 0 -684 1 -722 20 -45 23 -80 80
-80 130 0 45 35 107 73 127 29 17 85 18 692 23 649 5 661 5 706 26 60 28 125
93 152 153 30 64 30 178 0 242 -27 60 -92 125 -152 153 -44 20 -62 21 -501 26
-507 6 -461 -1 -555 80 -154 134 -294 207 -477 249 -84 20 -264 34 -323 25z"/>
</g>
</svg>
